<?xml version="1.0" encoding="utf-8"?>
<!-- Generator: Adobe Illustrator 16.0.0, SVG Export Plug-In . SVG Version: 6.00 Build 0)  -->
<!DOCTYPE svg PUBLIC "-//W3C//DTD SVG 1.1//EN" "http://www.w3.org/Graphics/SVG/1.1/DTD/svg11.dtd">
<svg version="1.1" id="Camada_1" xmlns="http://www.w3.org/2000/svg" xmlns:xlink="http://www.w3.org/1999/xlink" x="0px" y="0px"
	 width="512px" height="512px" viewBox="0 0 512 512" enable-background="new 0 0 512 512" xml:space="preserve">
<path fill="#1D527C" d="M17.29,49.548h247.742v57.807c0,4.568,3.689,8.258,8.258,8.258h57.807v66.064h16.516v-74.322
	c0-2.287-0.932-4.351-2.428-5.847l-66.04-66.04c-1.504-1.504-3.568-2.436-5.854-2.436H50.323V16.516h313.807v181.677h16.516V8.258
	c0-4.568-3.689-8.258-8.258-8.258H42.065c-4.568,0-8.258,3.689-8.258,8.258v24.774H9.032c-4.568,0-8.258,3.689-8.258,8.258v462.452
	c0,4.568,3.689,8.258,8.258,8.258h280.774v-16.517H17.29V49.548z M281.548,61.226l37.871,37.871h-37.871V61.226z"/>
<path fill="#1D527C" d="M454.967,247.742h-12.435c-36.875,0-71.557-16.242-95.157-44.56l-1.67-2.008
	c-3.129-3.774-9.564-3.774-12.693,0l-1.67,2c-23.608,28.327-58.29,44.568-95.165,44.568h-12.436c-4.568,0-8.258,3.69-8.258,8.258
	v133.746c0,32.52,17.541,62.746,45.774,78.875l74,42.29c1.266,0.726,2.686,1.089,4.097,1.089s2.83-0.363,4.097-1.089l74-42.29
	c28.233-16.129,45.774-46.355,45.774-78.875V256C463.226,251.432,459.536,247.742,454.967,247.742z M446.709,389.746
	c0,26.609-14.343,51.335-37.451,64.528l-69.903,39.964l-69.903-39.952C246.343,441.081,232,416.355,232,389.746V264.258h4.177
	c39.407,0,76.621-16.375,103.178-45.181c26.548,28.806,63.771,45.181,103.178,45.181h4.177V389.746z"/>
<path fill="#1D527C" d="M339.355,272.516c-50.085,0-90.839,40.754-90.839,90.84c0,50.084,40.754,90.838,90.839,90.838
	s90.839-40.754,90.839-90.838C430.194,313.27,389.44,272.516,339.355,272.516z M339.355,437.678
	c-40.984,0-74.322-33.339-74.322-74.322c0-40.984,33.338-74.323,74.322-74.323c40.983,0,74.322,33.339,74.322,74.323
	C413.677,404.339,380.338,437.678,339.355,437.678z"/>
<path fill="#1D527C" d="M335.415,389.028l-14.996-14.996l-11.678,11.677l24.774,24.775c1.561,1.568,3.674,2.419,5.839,2.419
	c0.669,0,1.347-0.081,2.016-0.246c2.823-0.714,5.053-2.858,5.896-5.642l24.774-82.58l-15.823-4.742L335.415,389.028z"/>
<path fill="#1D527C" d="M33.807,132.129h214.709v16.516H33.807V132.129z"/>
<path fill="#1D527C" d="M33.807,165.161h214.709v16.516H33.807V165.161z"/>
<path fill="#1D527C" d="M33.807,198.193h214.709v16.516H33.807V198.193z"/>
<path fill="#1D527C" d="M33.807,231.226h165.161v16.516H33.807V231.226z"/>
<path fill="#1D527C" d="M33.807,264.258h165.161v16.517H33.807V264.258z"/>
<path fill="#1D527C" d="M33.807,297.291h165.161v16.516H33.807V297.291z"/>
<path fill="#1D527C" d="M33.807,396.387h165.161v16.517H33.807V396.387z"/>
<path fill="#1D527C" d="M33.807,429.419h165.161v16.517H33.807V429.419z"/>
<path fill="#1D527C" d="M33.807,462.451h165.161v16.517H33.807V462.451z"/>
<path fill="#1D527C" d="M42.065,66.064H58.58v16.516H42.065V66.064z"/>
<path fill="#1D527C" d="M75.097,66.064h16.516v16.516H75.097V66.064z"/>
<path fill="#1D527C" d="M108.129,66.064h16.516v16.516h-16.516V66.064z"/>
<path fill="#1D527C" d="M141.161,66.064h107.354v16.516H141.161V66.064z"/>
</svg>
