<?xml version="1.0" encoding="utf-8"?>
<!-- Generator: Adobe Illustrator 16.0.0, SVG Export Plug-In . SVG Version: 6.00 Build 0)  -->
<!DOCTYPE svg PUBLIC "-//W3C//DTD SVG 1.1//EN" "http://www.w3.org/Graphics/SVG/1.1/DTD/svg11.dtd">
<svg version="1.1" id="Camada_1" xmlns="http://www.w3.org/2000/svg" xmlns:xlink="http://www.w3.org/1999/xlink" x="0px" y="0px"
	 width="699px" height="202px" viewBox="0 0 699 202" enable-background="new 0 0 699 202" xml:space="preserve">
<g>
	<defs>
		<rect id="SVGID_1_" x="-60" y="-183.276" width="841.89" height="595.276"/>
	</defs>
	<clipPath id="SVGID_2_">
		<use xlink:href="#SVGID_1_"  overflow="visible"/>
	</clipPath>
	<g clip-path="url(#SVGID_2_)">
		<path fill="#FFFFFF" d="M234.918,155.638c7.806,7.422,17.09,11.119,27.849,11.119c11.549,0,21.417-4.243,29.591-12.745
			c1.042-1.085,2.031-2.21,2.951-3.354l8.758,3.257c-1.6,2.299-3.415,4.51-5.436,6.612c-9.895,10.299-21.85,15.433-35.864,15.433
			c-13.957,0-25.882-5.134-35.777-15.433c-9.895-10.288-14.841-22.72-14.841-37.292c0-14.504,4.946-26.905,14.841-37.194
			c9.896-10.288,21.82-15.438,35.777-15.438c11.982,0,22.46,3.742,31.434,11.213c1.476,1.291,2.953,2.69,4.431,4.225
			c0.555,0.577,1.072,1.146,1.561,1.722l-6.265,6.523L234.918,155.638z M287.842,88.437c-7.195-5.751-15.548-8.631-25.075-8.631
			c-11.492,0-21.331,4.239-29.504,12.709c-8.173,8.46-12.265,18.711-12.265,30.72c0,9.908,2.766,18.603,8.295,26.075L287.842,88.437
			z"/>
		<path fill="#FFFFFF" d="M338.18,87.762v85.519h-8.306V87.762h-9.219v-8.626h9.219V53.634c0.377-7.09,2.981-13.192,7.846-18.308
			c5.029-4.857,10.844-7.286,17.418-7.286c3.441,0,7.073,0.669,10.881,2.015l-2.576,7.666c-2.587-1.147-5.078-1.725-7.468-1.725
			c-4.375,0-8.483,1.824-12.358,5.467c-3.443,3.511-5.258,7.765-5.437,12.748v24.925h18.433v8.626H338.18z"/>
		<path fill="#FFFFFF" d="M452.041,150.657l8.756,3.257c-1.597,2.299-3.414,4.51-5.437,6.612
			c-9.894,10.299-21.85,15.433-35.861,15.433c-13.959,0-25.885-5.134-35.779-15.433c-9.894-10.288-14.841-22.72-14.841-37.292
			c0-14.504,4.947-26.905,14.841-37.194c9.895-10.289,21.82-15.438,35.779-15.438c14.012,0,25.968,5.148,35.861,15.438
			c2.022,2.112,3.84,4.284,5.437,6.514l-8.756,3.365c-0.922-1.154-1.909-2.309-2.955-3.453c-8.173-8.44-18.037-12.66-29.587-12.66
			c-11.494,0-21.332,4.239-29.505,12.709c-8.173,8.46-12.266,18.711-12.266,30.72c0,12.02,4.093,22.28,12.266,30.777
			c8.173,8.5,18.011,12.745,29.505,12.745c11.55,0,21.414-4.245,29.587-12.745C450.132,152.927,451.119,151.802,452.041,150.657"/>
		<path fill="#FFFFFF" d="M580.651,173.28h-8.297v-19.171c-1.598,2.229-3.358,4.373-5.257,6.417
			c-9.895,10.299-21.849,15.434-35.862,15.434c-13.96,0-25.875-5.135-35.779-15.434c-9.895-10.288-14.842-22.69-14.842-37.194
			c0-14.572,4.947-27.003,14.842-37.292c9.904-10.289,21.819-15.438,35.779-15.438c14.014,0,25.968,5.148,35.862,15.438
			c1.898,2.045,3.659,4.187,5.257,6.426V79.135h8.297V173.28z M572.354,131.86v-17.057c-1.542-8.44-5.38-15.853-11.532-22.25
			c-8.172-8.499-18.038-12.748-29.587-12.748c-11.562,0-21.428,4.249-29.6,12.748c-8.173,8.51-12.255,18.76-12.255,30.778
			c0,12.021,4.082,22.259,12.255,30.729c8.172,8.47,18.038,12.696,29.6,12.696c11.549,0,21.415-4.246,29.587-12.746
			C566.975,147.616,570.813,140.244,572.354,131.86"/>
		<polygon fill="#FFFFFF" points="655.057,87.762 608.312,87.762 608.312,79.136 669.353,79.136 622.515,164.653 672.852,164.653 
			672.852,173.28 608.312,173.28 		"/>
	</g>
	<g clip-path="url(#SVGID_2_)">
		<polygon fill="#FFFFFF" points="107.037,132.073 106.959,129.717 44.744,131.808 44.323,131.824 44.401,134.182 106.616,132.091 
					"/>
		<g>
			<path fill="#FFFFFF" d="M130.194,125.894l0.365-0.211l-1.181-2.043l-6.769,3.91l-3.069-2.907l72.478-76.537l-1.713-1.62
				l-72.478,76.535l-2.154-2.04l-0.305-0.288l-1.621,1.714l2.458,2.327l-0.948,1.001L62.805,34.884l-0.211-0.364l-2.043,1.18
				l53.012,91.823l-4.46,4.71l-0.29,0.307l1.713,1.623l4.268-4.508l1.042,1.805l-40.368,23.307l-0.365,0.211l1.181,2.043
				l40.732-23.518l2.583,4.475l0.211,0.365l2.043-1.183l-2.793-4.837l3.205-1.851l36.681,34.737l0.306,0.288l1.621-1.711
				l-36.477-34.545L130.194,125.894z M120.477,128.779l-2.597,1.5l-1.392-2.413l1.43-1.51L120.477,128.779z"/>
			<path fill="#FFFFFF" d="M144.408,127.987c0,14.037-11.379,25.416-25.417,25.416c-14.037,0-25.416-11.379-25.416-25.416
				c0-14.038,11.379-25.417,25.416-25.417C133.029,102.57,144.408,113.95,144.408,127.987"/>
			<path fill="#FFFFFF" d="M207.03,47.287c0,8.76-7.101,15.861-15.86,15.861s-15.861-7.101-15.861-15.861
				c0-8.759,7.102-15.86,15.861-15.86S207.03,38.528,207.03,47.287"/>
			<path fill="#FFFFFF" d="M36.38,139.655c-3.675-4.406-3.082-10.958,1.325-14.633c4.406-3.675,10.958-3.082,14.633,1.325
				c3.675,4.407,3.082,10.957-1.325,14.633C46.607,144.655,40.056,144.062,36.38,139.655"/>
			<path fill="#FFFFFF" d="M79.286,164.202c-4.779,1.554-9.913-1.062-11.466-5.842c-1.553-4.779,1.062-9.912,5.841-11.466
				c4.78-1.552,9.914,1.063,11.467,5.842C86.681,157.516,84.065,162.649,79.286,164.202"/>
			<path fill="#FFFFFF" d="M170.541,165.947c0,5.025-4.074,9.101-9.1,9.101s-9.099-4.075-9.099-9.101c0-5.024,4.073-9.1,9.099-9.1
				S170.541,160.923,170.541,165.947"/>
			<path fill="#FFFFFF" d="M55.535,52.951c-6.132-5.483-6.659-14.899-1.176-21.032c5.483-6.132,14.9-6.658,21.032-1.176
				c6.132,5.483,6.659,14.9,1.176,21.032C71.084,57.908,61.667,58.434,55.535,52.951"/>
		</g>
	</g>
</g>
</svg>
